<?xml version="1.0" encoding="utf-8"?>
<!-- Generator: Adobe Illustrator 26.4.1, SVG Export Plug-In . SVG Version: 6.00 Build 0)  -->
<svg version="1.1" id="Layer_1" xmlns="http://www.w3.org/2000/svg" xmlns:xlink="http://www.w3.org/1999/xlink" x="0px" y="0px"
	 viewBox="0 0 311.9 291.7" style="enable-background:new 0 0 311.9 291.7;" xml:space="preserve">
<style type="text/css">
	.st0{fill:#FFFFFF;stroke:#000000;stroke-miterlimit:10;}
	.st1{fill:#FFFFFF;stroke:#000000;stroke-width:0.75;stroke-miterlimit:10;}
</style>
<path d="M310.4,189.6c-29.1,1.5-55.8-4.6-80.3-19.2c-0.8-0.4-1.5-0.9-2.3-1.3c-5.8-3.5-11.7-3.7-17.7-0.6c-8.3,4.2-16.5,8.6-25,12.4
	c-21.3,9.5-43.5,15.7-66.7,17.8c-7.6,0.7-15.3,0.4-23,0.6c-0.5,0-1.1-0.2-1.9-0.3c0.4-0.5,0.7-0.9,1-1.2
	c34.7-31.6,69.4-63.2,104.2-94.8c5-4.6,11.9-4.4,17,0.2c28.8,26.2,57.5,52.4,86.2,78.6C304.6,184.2,307.3,186.8,310.4,189.6z"/>
<path d="M95.5,198.1c1.4,0.1,2.1,0.2,2.7,0.2c17.9,0.5,35.5-1.9,52.8-6.5c19.9-5.3,38.8-13.2,56.7-23.3c7.5-4.2,14.5-4.2,21.9,0.3
	c23.4,14.4,49,20.7,76.4,20c0.5,0,1-0.2,1.7-0.3c-2.9-2.7-5.5-5.1-8.2-7.5c-28.4-25.9-56.8-51.8-85.2-77.6c-4-3.6-10.6-3.7-14.6-0.1
	c-27.9,25.3-55.8,50.7-83.7,76C109.3,185.4,102.6,191.6,95.5,198.1z"/>
<path d="M1.6,181.6c7.4-6.8,14.6-13.4,21.7-19.9c23.5-21.3,47-42.7,70.4-64c3.5-3.2,10.9-4,14.4-0.9c10.6,9.2,20.9,18.6,31.6,28.2
	c-3.9,4.5-7.5,8.7-11.2,12.7c-13,14.3-27.1,27.5-43.7,37.6c-13.5,8.2-28,13.8-44,14.6C27.3,190.6,14.4,187.6,1.6,181.6z M3.5,181.3
	c13.7,6.3,27.7,8.9,42.4,7.2c14.3-1.6,27.2-7,39.4-14.5c16.6-10.3,30.7-23.5,43.7-38c3.1-3.5,6.1-7,9.1-10.4
	c-0.2-0.5-0.2-0.7-0.4-0.8c-9.8-9-19.6-18-29.5-26.9c-3.4-3.1-10.2-2.6-13.7,0.6c-27,24.5-54,49.1-81,73.6
	C10.1,175.1,6.9,178.2,3.5,181.3z"/>
<path class="st0" d="M95.5,198.1c7.1-6.5,13.8-12.7,20.5-18.8c27.9-25.4,55.8-50.7,83.7-76c4-3.6,10.6-3.5,14.6,0.1
	c28.4,25.9,56.8,51.7,85.2,77.6c2.6,2.4,5.3,4.9,8.2,7.5c-0.8,0.1-1.3,0.3-1.7,0.3c-27.4,0.7-53-5.6-76.4-20
	c-7.4-4.5-14.4-4.5-21.9-0.3c-17.9,10.1-36.8,18-56.7,23.3c-17.3,4.6-34.9,7-52.8,6.5C97.5,198.3,96.8,198.2,95.5,198.1z"/>
<path class="st1" d="M3.5,181.3c3.4-3.2,6.7-6.2,10-9.2c27-24.6,54-49.1,81-73.6c3.5-3.2,10.3-3.6,13.7-0.6
	c9.9,8.9,19.7,17.9,29.5,26.9c0.1,0.1,0.1,0.3,0.4,0.8c-3,3.4-6,7-9.1,10.4c-13,14.5-27.1,27.7-43.7,38
	c-12.1,7.5-25.1,12.9-39.4,14.5C31.1,190.2,17.1,187.6,3.5,181.3z"/>
</svg>
